<svg width="22" height="22" viewBox="0 0 22 22" fill="none" xmlns="http://www.w3.org/2000/svg">
<path fill-rule="evenodd" clip-rule="evenodd" d="M19.5118 8.8H22V13.2H19.5129C19.2478 14.2241 18.81 15.1778 18.2215 16.0204L19.8 17.6L17.6 19.8L16.0215 18.2204C15.1767 18.8089 14.2252 19.2478 13.2 19.5118V22H8.8V19.5118C7.7759 19.2478 6.8233 18.8089 5.9796 18.2204L4.4 19.8L2.2 17.6L3.7796 16.0204C3.1911 15.1789 2.7522 14.2252 2.4882 13.2H0V8.8H2.4882C2.7522 7.7748 3.19 6.8222 3.7796 5.9796L2.2 4.4L4.4 2.2L5.9796 3.7796C6.8222 3.19 7.7748 2.7522 8.8 2.4882V0H13.2V2.4871C14.2252 2.7522 15.1767 3.19 16.0215 3.7785L17.6 2.1989L19.8 4.3989L18.2204 5.9796C18.8089 6.8222 19.2478 7.7759 19.5118 8.8ZM11 15.4C13.43 15.4 15.4 13.43 15.4 11C15.4 8.56995 13.43 6.6 11 6.6C8.56995 6.6 6.6 8.56995 6.6 11C6.6 13.43 8.56995 15.4 11 15.4Z" fill="#4F5660"/>
</svg>
